# xmcd
#
# Track frame offsets: 
#        150
#        17027
#        31070
#        40957
#        57600
#        71705
#        83875
#        96315
#        105792
#        117957
#        130742
#        144630
#        156330
#        168557
#        181510
#        197775
#        209025
#        221195
#        235440
#        248322
#        259120
#        271502
#        287867
#        300985
#
# Disc length: 4187 seconds
#
# Revision: 1
# Processed by: cddbd v1.5.2PL0 Copyright (c) Steve Scherf et al.
# Submitted via: ExactAudioCopy v0.99pb4
#
DISCID=58105918
DTITLE=Merle Haggard - 24 Greatest Hits
DYEAR=1995
DGENRE=
TTITLE0=Today I Started Loving You Again
TTITLE1=I'm A Lonesome Fugitive
TTITLE2=Mama Tried
TTITLE3=Daddy Frank (The Guitar Man)
TTITLE4=Always Wanting You
TTITLE5=Workin' Man Blues
TTITLE6=If We Make It Through December
TTITLE7=Legend Of Bonnie And Clyde
TTITLE8=The Bottle Let Me Down
TTITLE9=Swingin' Doors
TTITLE10=I Threw Away The Rose
TTITLE11=Carolyn
TTITLE12=Okie From Muskogee
TTITLE13=Fightin' Side Of Me
TTITLE14=Ramblin' Fever
TTITLE15=(My Friends Are Gonna Be) Strangers
TTITLE16=I Take A Lot Of Pride In What I Am
TTITLE17=Branded Man
TTITLE18=Sing Me Back Home
TTITLE19=Old Man From The Mountain
TTITLE20=Roots Of My Raising
TTITLE21=Mama's Hungry Eyes
TTITLE22=The Way I Am
TTITLE23=Holding Things Together
EXTD=TeeVee Records\nTVCD-6024
EXTT0=
EXTT1=
EXTT2=
EXTT3=
EXTT4=
EXTT5=
EXTT6=
EXTT7=
EXTT8=
EXTT9=
EXTT10=
EXTT11=
EXTT12=
EXTT13=
EXTT14=
EXTT15=
EXTT16=
EXTT17=
EXTT18=
EXTT19=
EXTT20=
EXTT21=
EXTT22=
EXTT23=
PLAYORDER=
